<?xml version="1.0" encoding="utf-8"?>
<!-- Generator: Adobe Illustrator 24.1.1, SVG Export Plug-In . SVG Version: 6.00 Build 0)  -->
<svg version="1.1" id="Layer_1" xmlns="http://www.w3.org/2000/svg" xmlns:xlink="http://www.w3.org/1999/xlink" x="0px" y="0px"
	 viewBox="0 0 300 300" style="enable-background:new 0 0 300 300;" xml:space="preserve">
<style type="text/css">
	.st0{fill:#F2D7B6;}
	.st1{fill:#173040;}
	.st2{fill:#9E4C4E;}
</style>
<path class="st0" d="M202,150.5c-1.2-7.1-3.4-13.5-6.5-19.5l0-25.3c0-3.5-1.5-6.8-3.9-9.2l0-15.4c0-0.5-0.2-1-0.5-1.3
	c-0.4-0.3-0.8-0.5-1.3-0.5h-5.6c-2.2-11.1-9.6-20.6-20.2-25.4c-4.6-2.1-9.5-3.1-14.6-3.1c-9.5,0-18.4,3.7-25.1,10.4
	c-5,5-8.4,11.3-9.7,18.2l-5.1,0c-0.5,0-1,0.2-1.3,0.5c-0.4,0.4-0.5,0.8-0.5,1.3l0,15.4c0,0,0,0,0,0c-2.5,2.5-3.8,5.7-3.8,9.2l0,24.4
	c-2.1,3.8-3.8,7.8-5.1,12.1c-0.9,3.3-1.8,7.8-1.9,8.4c-1,6-1.7,11.8,0.7,17.5c2.8,6.4,8.3,8.3,12.9,6.1c1.9-1,3.3-2.5,4.2-4.2
	c0.7,0.1,1.4,0.2,2.1,0.2l4.7,0c0,19.1,0,40.2,0,44c-4.4,1.1-7.6,5.1-7.6,9.8c0,3.9,2.3,7.5,5.9,9.2c1.3,0.6,2.7,0.9,4.1,0.9l14.2,0
	c2.7,0,5.2-1,7.1-3c1.9-1.9,2.9-4.4,2.9-7.1c0-1.8-0.5-3.5-1.4-5l0-25.8c-0.1-2,0.3-5.7,1.6-7.1c0.3-0.3,0.6-0.5,1.1-0.5
	c0.4,0,0.7,0.1,1,0.5c1.3,1.4,1.7,5.1,1.6,7.1l0,29.3c-0.1,0.5-0.1,0.9-0.1,1.4c0,4,2.3,7.5,5.9,9.2c1.3,0.6,2.7,0.9,4.1,0.9l14.2,0
	c5.5,0,10.1-4.5,10-10c0-3.9-2.3-7.5-5.9-9.1c-1-0.4-1.9-0.7-3-0.8c0-4.3,0-25,0-43.8h5.1c0.6,0,1.1,0,1.7-0.1
	c1.2,2,2.9,3.7,5.4,4.7c2.8,1.1,8,1.7,11.6-6.8C203.7,162.3,203,156.5,202,150.5z M183.7,94.7c0.2-0.6,0.3-1.2,0.5-1.8
	c0.4-2.1,0.7-4.3,0.7-6.7c0-1.1-0.1-2.1-0.2-3.2h3.1l0,10.9l0,1.5h-4.3C183.6,95.1,183.6,94.9,183.7,94.7z M188.9,99.1
	c1.8,1.7,2.8,4.1,2.8,6.6l0,19.1c-1.7-2.5-3.7-4.9-5.8-7.2c-3.7-4-7.2-7.1-10.6-9.6c2.8-2.5,5.1-5.4,6.7-8.8H188.9z M117.7,83.1
	c0.1-0.6,0.2-1.3,0.3-1.9c0.1-0.6,0.2-1.3,0.4-1.9c3.2-14.2,15.8-24.8,30.9-24.8c4.6,0,9,0.9,13.1,2.8c9.2,4.1,15.7,12.4,17.9,22
	c0.1,0.6,0.3,1.3,0.4,1.9c0.1,0.6,0.2,1.3,0.2,1.9c0.1,1,0.2,2.1,0.2,3.2c0,2.3-0.3,4.5-0.8,6.5c-0.2,0.6-0.3,1.3-0.5,1.9
	c-0.1,0.3-0.2,0.5-0.3,0.7c-0.1,0.4-0.3,0.8-0.5,1.2c-0.1,0.2-0.2,0.5-0.3,0.7c-0.3,0.7-0.6,1.3-1,1.9c-1.5,2.5-3.4,4.8-5.8,6.7
	c-0.8,0.6-1.6,1.2-2.4,1.7c-0.1,0-0.1,0.1-0.2,0.1c-5.3,3.3-12.1,5.1-20.1,5.1c-6.2,0-12-1.1-16.8-3.3c-1.2-0.5-2.3-1.1-3.3-1.7
	c-0.1,0-0.1-0.1-0.2-0.1c-0.8-0.5-1.6-1.1-2.4-1.7c-2.4-1.9-4.3-4.1-5.8-6.6c-0.4-0.6-0.7-1.2-1-1.9c-0.1-0.2-0.2-0.5-0.3-0.7
	c-0.2-0.4-0.3-0.8-0.5-1.2c-0.1-0.2-0.1-0.5-0.2-0.7c-0.2-0.6-0.4-1.3-0.5-1.9c-0.5-2.1-0.8-4.2-0.8-6.5
	C117.6,85.2,117.6,84.1,117.7,83.1z M113.9,83.1c-0.1,1-0.1,2.1-0.1,3.2c0,2.3,0.2,4.6,0.7,6.7c0.1,0.6,0.3,1.2,0.5,1.8
	c0,0.2,0.1,0.4,0.2,0.6h-2.4l-1.4,0V94l0-10.9H113.9z M110.2,99.3c0,0,0.1-0.1,0.1-0.1l6.3,0c1.6,3.4,3.8,6.3,6.7,8.8
	c-3.4,2.5-6.9,5.7-10.5,9.6c-1.9,2.1-3.7,4.3-5.3,6.6l0-18.4C107.5,103.3,108.4,101,110.2,99.3z M118,125.7l-6.4,9.3l-3.9-2.7
	l6.4-9.3L118,125.7z M112.5,165.4c-0.2,0.6-0.4,1.2-0.7,1.8c-0.3,0.6-0.6,1.1-1,1.6c-0.5,0.7-1.1,1.3-1.8,1.8
	c-0.4,0.3-0.8,0.5-1.3,0.7c-0.1,0-0.2,0.1-0.4,0.1c-0.5,0.2-1.2,0.3-1.9,0.2c-1.3-0.3-2.9-1.5-4.5-5c-0.9-2.1-1.3-4.3-1.3-6.5
	l1.7,0.3l2.2,0.4l0.8,0.2l1.3,0.3l0.8,0.2l2.4,0.5l4.4,0.9C113,163.7,112.8,164.6,112.5,165.4z M116.7,166.5c-0.2,0-0.4,0-0.5,0
	c0.5-1.6,0.8-3.1,1.1-4.5c1.5-7.3,2.9-12.7,4.1-16.5c0,5.3,0,12.9,0,21L116.7,166.5z M144.1,225.7c-0.3,1-0.8,2-1.6,2.7
	c-1.2,1.2-2.8,1.8-4.4,1.8l-14.2,0c-0.9,0-1.8-0.2-2.6-0.5c-2.3-1-3.7-3.3-3.7-5.7c0-3.5,2.8-6.3,6.3-6.3l1.4,0h9.7l3.2,0
	c0.9,0,1.8,0.2,2.6,0.6c0.9,0.4,1.7,1.1,2.3,1.8c0.8,1,1.3,2.3,1.3,3.6c0,0.1,0,0.2,0,0.2C144.3,224.5,144.2,225.1,144.1,225.7z
	 M178.8,218.2c2.3,1,3.7,3.3,3.7,5.7c0,3.5-2.8,6.3-6.3,6.3l-14.2,0c-0.9,0-1.8-0.2-2.6-0.6c-1.9-0.8-3.2-2.5-3.6-4.5
	c-0.1-0.4-0.1-0.8-0.1-1.2c0-0.3,0-0.5,0.1-0.8c0.1-0.8,0.4-1.7,0.8-2.4c0.3-0.4,0.6-0.9,1-1.3c1.2-1.2,2.8-1.8,4.4-1.9h6.8l4.8,0
	h2.6C177.2,217.7,178,217.8,178.8,218.2z M182.5,166.4h-5.1c0-8.1,0-15.7,0-21c1.2,3.8,2.6,9.3,4.1,16.5
	C181.8,163.3,182.1,164.8,182.5,166.4C182.6,166.4,182.5,166.4,182.5,166.4z M180.4,142.5c-2.2-6.4-3.3-7.5-4.9-7.3
	c-0.3,0-1.9,0.3-1.9,2.6c0,1.3,0,14,0,28.7v3.8c0,18.2,0,38.2,0,43.3l-0.8,0.4H162c-2.3,0-4.4,0.8-6.2,2.1l0-9.3l14.2,0
	c1,0,1.9-0.8,1.9-1.9c0-1-0.8-1.9-1.9-1.9l-14.2,0v-6h7.1c1,0,1.9-0.8,1.9-1.9c0-1-0.9-1.9-1.9-1.9l-7.1,0c0-1.2,0-6.8-2.7-9.6
	c-1-1-2.3-1.6-3.8-1.6c-1.4,0-2.7,0.6-3.8,1.6c-2.8,2.9-2.7,9.1-2.7,9.7l0,5.1l-13.5,0c-1,0-1.9,0.8-1.9,1.9c0,0.8,0.5,1.4,1.1,1.7
	c0.2,0.1,0.5,0.2,0.8,0.2l13.5,0l0,13c-0.3-0.1-0.5-0.3-0.8-0.4c-1.3-0.6-2.7-0.9-4.1-0.9l-12.1,0l-0.8-0.3c0-5.1,0-25.1,0-43.3
	v-1.9c0-0.6,0-1.3,0-1.9c0-14.7,0-27.4,0-28.7c0-2.3-1.6-2.6-1.9-2.6c-1.6-0.2-2.7,0.9-4.9,7.3c-1,3.1-2.6,8.5-4.3,16.6l-6.5-1.3
	l-1.9-0.4l-1.5-0.3l-0.4-0.1l-1.8-0.4l-2.2-0.4h0c0,0,0-0.1,0-0.1c0.1-1.3,0.3-2.6,0.5-4c0.1-0.3,0.1-0.6,0.2-1
	c0.2-0.9,0.3-1.8,0.5-2.7c0.7-3.3,1.6-6.4,2.8-9.5c0.5-1.3,1.1-2.6,1.6-3.8l0.3,0.2l1.9,1.3l3.5,2.4c0.1,0.1,0.2,0.1,0.3,0.2
	c0.8,0.4,1.8,0.1,2.3-0.6l8.6-12.4c0.3-0.4,0.4-0.9,0.3-1.4c-0.1-0.5-0.4-0.9-0.8-1.2l-5.8-4c3.7-3.9,7.1-7,10.5-9.3
	c1.4,0.9,2.9,1.7,4.5,2.5c5.3,2.4,11.7,3.7,18.4,3.7c9.1,0,16.8-2.2,22.8-6.2c3.5,2.4,7.2,5.6,11,9.8c3.4,3.7,6.3,7.7,8.6,11.9
	c0.7,1.2,1.3,2.5,1.9,3.8c0.7,1.5,1.3,3.1,1.9,4.7c1.2,3.4,2.2,7,2.8,10.7c0.3,1.7,0.5,3.4,0.7,5l-3.5,0.8l-1.9,0.4l-1.9,0.4
	l-6.9,1.5C183,151,181.4,145.6,180.4,142.5z M197.8,166.5c-2.7,6.3-5.7,5.2-6.8,4.7c-1.3-0.5-2.2-1.3-3-2.3c-0.4-0.5-0.7-1-1-1.6
	c-0.3-0.5-0.5-1.1-0.7-1.8c-0.3-0.8-0.5-1.7-0.7-2.6l4.8-1.1l2.4-0.5l2.2-0.5l4.2-0.9C199.1,162.2,198.7,164.4,197.8,166.5z"/>
<path class="st1" d="M180.9,83c-0.1-0.6-0.1-1.3-0.2-1.9c-0.1-0.6-0.2-1.3-0.4-1.9c-2.2-9.6-8.7-17.8-17.9-22
	c-4.1-1.9-8.5-2.8-13.1-2.8c-15.1,0-27.8,10.7-30.9,24.8c-0.1,0.6-0.3,1.3-0.4,1.9c-0.1,0.6-0.2,1.3-0.3,1.9c-0.1,1-0.2,2.1-0.2,3.2
	c0,2.3,0.3,4.5,0.8,6.5c0.1,0.6,0.3,1.3,0.5,1.9c0.1,0.2,0.2,0.5,0.2,0.7c0.1,0.4,0.3,0.8,0.5,1.2c0.1,0.3,0.2,0.5,0.3,0.7
	c0.3,0.6,0.6,1.3,1,1.9c1.5,2.5,3.4,4.8,5.8,6.6c0.8,0.6,1.5,1.2,2.4,1.7c0.1,0,0.1,0.1,0.2,0.1c1,0.6,2.1,1.2,3.3,1.7
	c4.8,2.2,10.6,3.3,16.8,3.3c8,0,14.8-1.8,20.1-5.1c0.1,0,0.1-0.1,0.2-0.1c0.8-0.5,1.7-1.1,2.4-1.7c2.4-1.9,4.3-4.1,5.8-6.7
	c0.3-0.6,0.7-1.2,1-1.9c0.1-0.2,0.2-0.5,0.3-0.7c0.2-0.4,0.3-0.8,0.5-1.2c0.1-0.3,0.2-0.5,0.3-0.7c0.2-0.6,0.3-1.2,0.5-1.9
	c0.5-2.1,0.8-4.2,0.8-6.5C181.1,85.1,181,84.1,180.9,83z M174.5,86.6c-0.1,2.6-0.7,5.1-1.8,7.2c-0.3,0.6-0.6,1.3-1,1.8
	c-0.2,0.2-0.3,0.5-0.5,0.7c-0.3,0.4-0.6,0.8-0.9,1.1c-0.2,0.2-0.5,0.5-0.7,0.7c-0.6,0.6-1.3,1.3-2.1,1.8c0,0,0,0-0.1,0
	c-4.1,2.9-9.8,4.3-16.1,4c-4.4-0.2-8.4-1.2-11.8-2.9c-1.5-0.8-2.8-1.7-4-2.7c-0.7-0.6-1.4-1.3-1.9-2c-0.2-0.3-0.4-0.5-0.6-0.8
	c-0.3-0.4-0.6-0.8-0.8-1.2c-0.2-0.3-0.3-0.5-0.4-0.8c-0.3-0.6-0.6-1.3-0.9-1.9c-0.8-2.2-1.2-4.7-1.1-7.3c0-0.8,0.1-1.6,0.3-2.4
	c0.1-0.6,0.2-1.3,0.4-1.9c0.2-0.6,0.3-1.3,0.6-1.9c1.2-3.5,3.3-6.7,6.1-9.3c4.4-4,10.1-6.1,16-5.8c3.2,0.1,6.3,1,9.1,2.4
	c5.9,3,10,8.4,11.5,14.7c0.2,0.6,0.3,1.3,0.4,1.9c0.1,0.6,0.2,1.3,0.2,1.9C174.5,84.9,174.5,85.7,174.5,86.6z"/>
<path class="st1" d="M174.5,86.6c-0.1,2.6-0.7,5.1-1.8,7.2c-0.3,0.6-0.6,1.3-1,1.8c-0.2,0.2-0.3,0.5-0.5,0.7
	c-0.3,0.4-0.6,0.8-0.9,1.1c-0.2,0.2-0.5,0.5-0.7,0.7c-0.6,0.6-1.3,1.3-2.1,1.8c0,0,0,0-0.1,0c-4.1,2.9-9.8,4.3-16.1,4
	c-4.4-0.2-8.4-1.2-11.8-2.9c-1.5-0.8-2.8-1.7-4-2.7c-0.7-0.6-1.4-1.3-1.9-2c-0.2-0.3-0.4-0.5-0.6-0.8c-0.3-0.4-0.6-0.8-0.8-1.2
	c-0.2-0.3-0.3-0.5-0.4-0.8c-0.3-0.6-0.6-1.3-0.9-1.9c-0.8-2.2-1.2-4.7-1.1-7.3c0-0.8,0.1-1.6,0.3-2.4c0.1-0.6,0.2-1.3,0.4-1.9
	c0.2-0.6,0.3-1.3,0.6-1.9c1.2-3.5,3.3-6.7,6.1-9.3c4.4-4,10.1-6.1,16-5.8c3.2,0.1,6.3,1,9.1,2.4c5.9,3,10,8.4,11.5,14.7
	c0.2,0.6,0.3,1.3,0.4,1.9c0.1,0.6,0.2,1.3,0.2,1.9C174.5,84.9,174.5,85.7,174.5,86.6z"/>
<path class="st1" d="M115.1,95.4h-2.4l-1.4,0V94l0-10.9h2.6c-0.1,1-0.1,2.1-0.1,3.2c0,2.3,0.2,4.6,0.7,6.7c0.1,0.6,0.3,1.2,0.5,1.8
	C115,95,115.1,95.2,115.1,95.4z"/>
<path class="st1" d="M187.8,95.3h-4.3c0.1-0.2,0.1-0.4,0.2-0.6c0.2-0.6,0.3-1.2,0.5-1.8c0.4-2.1,0.7-4.3,0.7-6.7
	c0-1.1-0.1-2.1-0.2-3.2h3.1l0,10.9L187.8,95.3z"/>
<path class="st1" d="M191.7,124.8c-1.7-2.5-3.7-4.9-5.8-7.2c-3.7-4-7.2-7.1-10.6-9.6c2.8-2.5,5.1-5.4,6.7-8.8h6.9
	c1.8,1.7,2.8,4.1,2.8,6.6L191.7,124.8z"/>
<path class="st1" d="M123.3,108c-3.4,2.5-6.9,5.7-10.5,9.6c-1.9,2.1-3.7,4.3-5.3,6.6l0-18.4c0-2.5,1-4.8,2.7-6.5
	c0,0,0.1-0.1,0.1-0.1l6.3,0C118.2,102.5,120.4,105.5,123.3,108z"/>
<path class="st1" d="M121.4,166.5l-4.6,0c-0.2,0-0.4,0-0.5,0c0.5-1.6,0.8-3.1,1.1-4.5c1.5-7.3,2.9-12.7,4.1-16.5
	C121.4,150.8,121.4,158.3,121.4,166.5z"/>
<path class="st1" d="M182.6,166.4C182.6,166.4,182.5,166.4,182.6,166.4h-5.2c0-8.1,0-15.7,0-21c1.2,3.8,2.6,9.3,4.1,16.5
	C181.8,163.3,182.1,164.8,182.6,166.4z"/>
<path class="st2" d="M199.2,160c-0.1,2.3-0.4,4.4-1.3,6.5c-2.7,6.3-5.7,5.2-6.8,4.7c-1.3-0.5-2.2-1.3-3-2.3c-0.4-0.5-0.7-1-1-1.6
	c-0.3-0.5-0.5-1.1-0.7-1.8c-0.3-0.8-0.5-1.7-0.7-2.6l4.8-1.1l2.4-0.5l2.2-0.5L199.2,160z"/>
<polygon class="st0" points="118,125.7 111.6,135 107.7,132.3 114.2,123 "/>
<path class="st2" d="M113.2,162.8c-0.2,0.9-0.4,1.8-0.7,2.6c-0.2,0.6-0.4,1.2-0.7,1.8c-0.3,0.6-0.6,1.1-1,1.6
	c-0.5,0.7-1.1,1.3-1.8,1.8c-0.4,0.3-0.8,0.5-1.3,0.7c-0.1,0-0.2,0.1-0.4,0.1c-0.5,0.2-1.2,0.3-1.9,0.2c-1.3-0.3-2.9-1.5-4.5-5
	c-0.9-2.1-1.3-4.3-1.3-6.5l1.7,0.3l2.2,0.4l0.8,0.2l1.3,0.3l0.8,0.2l2.4,0.5L113.2,162.8z"/>
<path class="st2" d="M144.3,224c0,0.6-0.1,1.2-0.3,1.7c-0.3,1-0.8,2-1.6,2.7c-1.2,1.2-2.8,1.8-4.4,1.8l-14.2,0
	c-0.9,0-1.8-0.2-2.6-0.5c-2.3-1-3.7-3.3-3.7-5.7c0-3.5,2.8-6.3,6.3-6.3l1.4,0h9.7l3.2,0c0.9,0,1.8,0.2,2.6,0.6
	c0.9,0.4,1.7,1.1,2.3,1.8c0.8,1,1.3,2.3,1.3,3.6C144.3,223.8,144.3,223.9,144.3,224z"/>
<path class="st2" d="M182.5,223.9c0,3.5-2.8,6.3-6.3,6.3l-14.2,0c-0.9,0-1.8-0.2-2.6-0.6c-1.9-0.8-3.2-2.5-3.6-4.5
	c-0.1-0.4-0.1-0.8-0.1-1.2c0-0.3,0-0.5,0.1-0.8c0.1-0.8,0.4-1.7,0.8-2.4c0.3-0.4,0.6-0.9,1-1.3c1.2-1.2,2.8-1.8,4.4-1.9h6.8l4.8,0
	h2.6c0.9,0,1.8,0.2,2.6,0.6C181.1,219.2,182.5,221.5,182.5,223.9z"/>
<path class="st2" d="M199,156.2l-3.5,0.8l-1.9,0.4l-1.9,0.4l-6.9,1.5c-1.8-8.3-3.4-13.7-4.4-16.8c-2.2-6.4-3.3-7.5-4.9-7.3
	c-0.3,0-1.9,0.3-1.9,2.6c0,1.3,0,14,0,28.7v3.8c0,18.2,0,38.2,0,43.3l-0.8,0.4H162c-2.3,0-4.4,0.8-6.2,2.1l0-9.3l14.2,0
	c1,0,1.9-0.8,1.9-1.9c0-1-0.8-1.9-1.9-1.9l-14.2,0v-6h7.1c1,0,1.9-0.8,1.9-1.9c0-1-0.9-1.9-1.9-1.9l-7.1,0c0-1.2,0-6.8-2.7-9.6
	c-1-1-2.3-1.6-3.8-1.6c-1.4,0-2.7,0.6-3.8,1.6c-2.8,2.9-2.7,9.1-2.7,9.7l0,5.1l-13.5,0c-1,0-1.9,0.8-1.9,1.9c0,0.8,0.5,1.4,1.1,1.7
	c0.2,0.1,0.5,0.2,0.8,0.2l13.5,0l0,13c-0.3-0.1-0.5-0.3-0.8-0.4c-1.3-0.6-2.7-0.9-4.1-0.9l-12.1,0l-0.8-0.3c0-5.1,0-25.1,0-43.3
	v-1.9c0-0.6,0-1.3,0-1.9c0-14.7,0-27.4,0-28.7c0-2.3-1.6-2.6-1.9-2.6c-1.6-0.2-2.7,0.9-4.9,7.3c-1,3.1-2.6,8.5-4.3,16.6l-6.5-1.3
	l-1.9-0.4l-1.5-0.3l-0.4-0.1l-1.8-0.4l-2.2-0.4h0c0,0,0-0.1,0-0.1c0.1-1.3,0.3-2.6,0.5-4c0.1-0.3,0.1-0.6,0.2-1
	c0.2-0.9,0.3-1.8,0.5-2.7c0.7-3.3,1.6-6.4,2.8-9.5c0.5-1.3,1.1-2.6,1.6-3.8l0.3,0.2l1.9,1.3l3.5,2.4c0.1,0.1,0.2,0.1,0.3,0.2
	c0.8,0.4,1.8,0.1,2.3-0.6l8.6-12.4c0.3-0.4,0.4-0.9,0.3-1.4c-0.1-0.5-0.4-0.9-0.8-1.2l-5.8-4c3.7-3.9,7.1-7,10.5-9.3
	c1.4,0.9,2.9,1.7,4.5,2.5c5.3,2.4,11.7,3.7,18.4,3.7c9.1,0,16.8-2.2,22.8-6.2c3.5,2.4,7.2,5.6,11,9.8c3.4,3.7,6.3,7.7,8.6,11.9
	c0.7,1.2,1.3,2.5,1.9,3.8c0.7,1.5,1.3,3.1,1.9,4.7c1.2,3.4,2.2,7,2.8,10.7C198.6,152.9,198.8,154.5,199,156.2z"/>
<path class="st0" d="M174.5,86.6c-0.1,2.6-0.7,5.1-1.8,7.2c-0.3,0.6-0.6,1.3-1,1.8c-0.2,0.2-0.3,0.5-0.5,0.7
	c-0.3,0.4-0.6,0.8-0.9,1.1c-0.2,0.2-0.5,0.5-0.7,0.7c-0.6,0.6-1.3,1.3-2.1,1.8c0,0,0,0-0.1,0c-4.1,2.9-9.8,4.3-16.1,4
	c-4.4-0.2-8.4-1.2-11.8-2.9c-1.5-0.8-2.8-1.7-4-2.7c-0.7-0.6-1.4-1.3-1.9-2c-0.2-0.3-0.4-0.5-0.6-0.8c-0.3-0.4-0.6-0.8-0.8-1.2
	c-0.2-0.3-0.3-0.5-0.4-0.8c-0.3-0.6-0.6-1.3-0.9-1.9c-0.8-2.2-1.2-4.7-1.1-7.3c0-0.8,0.1-1.6,0.3-2.4c0.1-0.6,0.2-1.3,0.4-1.9
	c0.2-0.6,0.3-1.3,0.6-1.9c1.2-3.5,3.3-6.7,6.1-9.3c4.4-4,10.1-6.1,16-5.8c3.2,0.1,6.3,1,9.1,2.4c5.9,3,10,8.4,11.5,14.7
	c0.2,0.6,0.3,1.3,0.4,1.9c0.1,0.6,0.2,1.3,0.2,1.9C174.5,84.9,174.5,85.7,174.5,86.6z"/>
</svg>
