<svg width="291" height="305" viewBox="0 0 291 305" fill="none" xmlns="http://www.w3.org/2000/svg">
<g clip-path="url(#clip0)">
<circle cx="242.5" cy="62.5" r="242.5" fill="#9E4C4E"/>
<path d="M293.814 79.2284C217.265 63.2473 275.84 185.144 349.354 135.846C286.417 157.151 237.209 91.4756 293.814 79.2284Z" fill="#173040"/>
<path d="M160.858 119C139.358 139.5 155.358 166.5 186.358 158.5C160.858 150 149.358 146 160.858 119Z" fill="#173040"/>
<path d="M40.9543 -6.2159C12.9287 -16.068 -3.86674 10.4446 17.3331 34.4355C8.05862 16.0742 11.676 -4.2072 40.9543 -6.2159Z" fill="#173040"/>
<path d="M36.681 90.2422C24.843 81.8735 23.5 107 41 104C28 103 25.6448 88.1623 36.681 90.2422Z" fill="#173040"/>
<path d="M232.401 281.663C219.796 293.245 246.744 306.305 248.65 282.259C243.721 298.668 226.877 295.038 232.401 281.663Z" fill="#173040"/>
<path d="M106.209 8.21857C65.4459 49.5518 152.321 103.508 158.645 13.364C142.619 74.2288 88.2849 57.5629 106.209 8.21857Z" fill="#173040"/>
</g>
<defs>
<clipPath id="clip0">
<rect width="291" height="305" fill="white"/>
</clipPath>
</defs>
</svg>
