<svg width="64" height="64" viewBox="0 0 64 64" fill="none" xmlns="http://www.w3.org/2000/svg">
<circle cx="32" cy="32" r="29.5" fill="#9E4C4E" stroke="#F2D7B6" stroke-width="5"/>
<path d="M43.0448 44.0377C42.3947 44.6877 41.4643 45 40.33 45C38.6285 45 36.4745 44.299 34.1549 43.0181C33.4539 42.6294 32.7338 42.1897 32.0137 41.7053C31.1725 41.1318 30.3185 40.4945 29.471 39.7935C28.5469 39.0352 27.6165 38.194 26.7116 37.2891C25.864 36.4415 25.0802 35.5812 24.3537 34.7145C23.6591 33.8733 23.0154 33.0257 22.4355 32.1909C21.9448 31.4708 21.4987 30.7571 21.1036 30.0625C18.8732 26.1114 18.2997 22.6128 19.9566 20.9559C20.6066 20.3059 21.5434 20 22.6713 20C24.3792 20 26.5523 20.7074 28.8847 22.001C28.1837 22.1858 27.5082 22.4407 26.8709 22.7594C26.2846 23.0461 25.7302 23.3903 25.2076 23.779C24.2008 23.3839 23.3341 23.1863 22.6713 23.1863C22.4546 23.1863 22.3081 23.2118 22.2252 23.2309C22.0723 23.6834 22.2125 24.754 22.8051 26.2516C23.0091 26.7742 23.2703 27.3541 23.6017 27.9722C23.8758 28.5011 24.1944 29.0619 24.564 29.6419C25.6155 31.2796 27.0493 33.115 28.9675 35.0331C30.8666 36.9322 32.7911 38.4425 34.5564 39.5514C35.1363 39.9146 35.6907 40.2332 36.226 40.5073C36.8378 40.8195 37.4241 41.0808 37.9594 41.2847C38.8961 41.6352 39.6991 41.8137 40.33 41.8137C40.553 41.8137 40.6996 41.7882 40.7761 41.7627C40.9227 41.3421 40.8079 40.3671 40.3045 39.0097C40.706 38.4871 41.0501 37.9327 41.3433 37.34C41.6683 36.7092 41.9295 36.04 42.1207 35.339C44.1663 39.118 44.6443 42.4382 43.0448 44.0377Z" fill="#F2D7B6"/>
<path d="M34.1542 43.0181C33.3576 43.203 32.5228 43.3049 31.6689 43.3049C25.6849 43.3049 20.8353 38.4553 20.8353 32.4714C20.8353 31.6429 20.9309 30.8336 21.103 30.0625C21.4981 30.7571 21.9442 31.4709 22.4349 32.191C23.0148 33.0258 23.6584 33.8734 24.353 34.7146C25.105 37.1489 27.0296 39.0671 29.4703 39.7936C30.3179 40.4946 31.1718 41.1318 32.013 41.7054C32.7331 42.1897 33.4532 42.6294 34.1542 43.0181Z" fill="#F2D7B6"/>
<path d="M42.5024 32.4712C42.5024 33.4654 42.3685 34.4277 42.12 35.3389C41.9288 36.0399 41.6676 36.7091 41.3426 37.34C41.0494 37.9326 40.7053 38.487 40.3038 39.0096C39.6474 39.8827 38.8572 40.6538 37.9587 41.2847C37.4234 41.0807 36.8371 40.8194 36.2253 40.5072C35.69 40.2332 35.1356 39.9145 34.5557 39.5513C36.3527 38.8184 37.8121 37.4164 38.6214 35.6576C38.9082 35.0331 39.1121 34.3639 39.2204 33.6629C39.2842 33.2742 39.316 32.8727 39.316 32.4712C39.316 31.9423 39.2651 31.4261 39.1631 30.9291C39.1631 30.9291 39.1631 30.9227 39.1567 30.9163C38.5449 27.9594 36.2253 25.627 33.2747 24.9897C32.7586 24.8814 32.2169 24.824 31.6688 24.824C31.2865 24.824 30.9105 24.8495 30.5409 24.9069C29.8335 25.0088 29.158 25.2128 28.5271 25.4995C26.73 26.3089 25.2962 27.8001 24.5633 29.6418C24.1937 29.0619 23.8751 28.5011 23.601 27.9721C23.2696 27.354 23.0084 26.7741 22.8044 26.2515C23.4672 25.302 24.2765 24.4672 25.2069 23.7789C25.7295 23.3902 26.2839 23.0461 26.8702 22.7593C27.5075 22.4407 28.183 22.1857 28.884 22.0009C29.7698 21.7651 30.7066 21.6377 31.6688 21.6377C37.6528 21.6377 42.5024 26.4873 42.5024 32.4712Z" fill="#F2D7B6"/>
</svg>
