<?xml version="1.0" encoding="utf-8"?>
<!-- Generator: Adobe Illustrator 24.1.1, SVG Export Plug-In . SVG Version: 6.00 Build 0)  -->
<svg version="1.1" id="Layer_1" xmlns="http://www.w3.org/2000/svg" xmlns:xlink="http://www.w3.org/1999/xlink" x="0px" y="0px"
	 viewBox="0 0 300 300" style="enable-background:new 0 0 300 300;" xml:space="preserve">
<style type="text/css">
	.st0{fill:#9E4C4E;stroke:#F2D7B6;stroke-width:5;stroke-miterlimit:10;}
	.st1{fill:#9E4C4E;stroke:#F2D7B6;stroke-width:8;stroke-miterlimit:10;}
	.st2{fill:#173040;stroke:#F2D7B6;stroke-width:8;stroke-miterlimit:10;}
	.st3{fill:#F2D7B6;}
	.st4{fill:#173040;stroke:#F2D7B6;stroke-width:5;stroke-miterlimit:10;}
	.st5{fill:#F2D7B6;stroke:#F2D7B6;stroke-width:5;stroke-miterlimit:10;}
</style>
<g>
	<path class="st0" d="M185.5,121.1v106.5c-0.1-0.1-0.2-0.2-0.3-0.3c-3.7-3.9-6.2-4.9-9.9-6.7c-2.4-0.9-5-1.4-7.6-1.4
		c-6.3,0-12,2.6-16.1,6.7c-0.3,0.2-0.5,0.5-0.7,0.8c-0.3,0.3-0.5,0.6-0.8,0.9l0,0c-4.2-5.1-10.5-8.4-17.6-8.4
		c-2.7,0-5.3,0.6-7.6,1.4c-0.2,0.1-2.2,0.8-4.7,2.4c-0.2,0.1-0.4,0.3-0.6,0.4c-0.5,0.4-1.1,0.7-1.6,1.2c-1.1,0.9-2.2,1.9-3.1,3.1
		V80.9c0-7.7,0.8-15.3,2.2-22.7c1.4-7.4,3.5-14.7,6.2-21.8v-0.2c0.3-1,0.7-2,1.1-2.9l7.2-17.5c3.1-7.4,10.3-12.2,18.5-12.2
		s15.4,4.8,18.6,12.2l7.2,17.6c0.3,0.9,0.7,1.9,1.1,2.8c0,0.1,0,0.1,0,0.1c5.5,14.2,8.3,29.3,8.4,44.7c0,0,0,0.1,0,0.3v8.5
		C185.3,97.6,185.3,109.6,185.5,121.1z"/>
	<path class="st1" d="M114.6,81.9c0-7.7,0.8-15.3,2.2-22.7c1.4-7.4,3.5-14.7,6.2-21.8v-0.2c0.3-1,0.7-2,1.1-2.9l7.2-17.5
		c3.1-7.4,10.3-12.2,18.5-12.2c8.2,0,15.4,4.8,18.6,12.2l7.2,17.6c0.3,0.9,0.7,1.9,1.1,2.8c0,0.1,0,0.1,0,0.1
		c5.5,14.2,8.3,29.3,8.4,44.7c0,0,0,0.1,0,0.3v8.5"/>
	<path class="st2" d="M269.8,257c-1,1.1-2.3,1.7-3.8,1.7h-75.7c0-5.7,0-5,0-9.9v-7.3c0-5.2-2-10-5.1-13.7V89.7c0-5.4,0-8.8,0-8.8
		l0.1,0.4l19.9,76.4c1,2,1.7,4.1,2.3,6c1.6,4.4,2.6,7.6,6,10l35.2,30c10.9,8.2,18.2,20.4,20.2,33.9l2,15.2
		C271.3,254.6,270.8,255.9,269.8,257z"/>
	<path class="st2" d="M114.7,81v146.7c-3.1,3.8-5.1,8.5-5.1,13.7v7.3c0,0,0,0.1,0,0.2v9.7H33.9c-1.5,0-2.8-0.6-3.8-1.7
		c-1-1.1-1.4-2.4-1.3-3.9l2-15.1c2-13.7,9.3-25.9,20.5-34.2L86.1,174c3.6-2.7,4.8-5.9,6.3-10.3c0.7-2,1.4-4,2.3-6L114.7,81z"/>
	<path class="st2" d="M190.3,241.5v7.3c0,4.9,0,4.2,0,9.9c0,0-3.3,0-8.9,0c0,0-0.4,0-1.2,0h-70.6v-9.8c0-0.1,0-0.2,0-0.2v-7.3
		c0-5.2,2-9.9,5.1-13.7v0c0,0,0.1-0.1,0.1-0.1v0c1-1.2,2-2.2,3.1-3.1c0.5-0.4,1.1-0.8,1.6-1.2c0.2-0.1,0.4-0.3,0.6-0.4
		c2.5-1.6,4.5-2.3,4.7-2.4c2.3-0.8,4.9-1.4,7.6-1.4c7.1,0,13.5,3.3,17.6,8.4l0,0c0.3-0.3,0.5-0.6,0.8-0.9c0.2-0.3,0.5-0.5,0.7-0.8
		c4.1-4.1,9.8-6.7,16.1-6.7c2.6,0,5.2,0.5,7.6,1.4c3.6,1.8,6.1,2.8,9.9,6.7v0.5C188.3,231.6,190.3,236.3,190.3,241.5z"/>
	<path class="st3" d="M165.1,67.5c0,2.7-2.2,4.9-5.1,4.9s-5.1-2.1-5.1-4.9c-0.1-2.2-1-4.9-5.1-4.9s-5,2.7-5.1,5
		c-0.1,2.6-2.3,4.8-5.1,4.8h-0.1c-2.7,0-5-2.1-5-4.9c0-6,4-14.7,15.1-14.7S165.1,61.5,165.1,67.5z"/>
	<path class="st3" d="M155.1,82.1h-10c-2.8,0-5.1,2.2-5.1,4.9c0,2.7,2.2,4.9,5.1,4.9h10c2.8,0,5.1-2.2,5.1-4.9
		C160,84.3,157.8,82.1,155.1,82.1z"/>
	<path class="st3" d="M150,111.6c-2.8,0-5.1,2.2-5.1,4.9v78.4c0,2.7,2.2,4.9,5.1,4.9s5.1-2.2,5.1-4.9v-78.4
		C155.1,113.8,152.8,111.6,150,111.6z"/>
	<path class="st4" d="M114.7,227.7L114.7,227.7c-3.1,3.8-5.1,8.5-5.1,13.7v7.3c0,0,0,0.1,0,0.2v9.8h-0.1v-0.1c0-6.1,0-9.8,0-9.8
		v-7.3c0-5.2,2-9.9,5.1-13.7C114.6,227.8,114.7,227.8,114.7,227.7z"/>
	<path class="st4" d="M117.9,224.6c-1.1,0.9-2.2,1.9-3.1,3.1v0C115.7,226.4,116.8,225.4,117.9,224.6z"/>
	<path class="st4" d="M119.5,223.4c-0.5,0.4-1.1,0.7-1.6,1.2C118.4,224.1,119,223.7,119.5,223.4z"/>
	<path class="st4" d="M150.9,226.7c-0.3,0.3-0.5,0.6-0.8,0.9l0,0C150.3,227.3,150.6,227,150.9,226.7z"/>
	<path class="st4" d="M190.3,241.5c0-5.2-2-10-5.1-13.7v-0.1c0,0,0.1,0.1,0.1,0.1C188.4,231.6,190.4,236.3,190.3,241.5z"/>
	<path class="st5" d="M144.4,276.3c-0.3,0.8-0.7,1.2-1.1,1.2h-23.1c-0.4,0-0.9-0.4-1.1-1.2c-0.3-0.8-0.4-1.8-0.3-2.7l1.4-12.2v-2.7
		h22.7c0.3,0,0.4,0,0.4,0v2.7l1.4,12.2C144.8,274.5,144.7,275.6,144.4,276.3z"/>
	<path class="st5" d="M180.8,276.3c-0.3,0.8-0.7,1.2-1.1,1.2h-23.1c-0.4,0-0.9-0.4-1.1-1.2c-0.3-0.8-0.4-1.8-0.3-2.7l1.4-12.2v-2.7
		h22.7c0.3,0,0.4,0,0.4,0v2.7l1.4,12.2C181.2,274.5,181,275.6,180.8,276.3z"/>
</g>
</svg>
