<?xml version="1.0" encoding="utf-8"?>
<!-- Generator: Adobe Illustrator 24.1.1, SVG Export Plug-In . SVG Version: 6.00 Build 0)  -->
<svg version="1.1" id="Layer_1" xmlns="http://www.w3.org/2000/svg" xmlns:xlink="http://www.w3.org/1999/xlink" x="0px" y="0px"
	 viewBox="0 0 362 487" style="enable-background:new 0 0 362 487;" xml:space="preserve">
<style type="text/css">
	.st0{fill:#F2D7B6;}
</style>
<path class="st0" d="M72.3,462c0,3.2,0,6.3,0,9.5c0.1,1.2,0,2.3,0,3.5c0,2.2-1.8,4-4,4c-2.2,0-4-1.8-4-4c0-1.2,0-2.3,0-3.5
	c-0.1-3.5,0-7,0-10.5C64.8,455.1,73.1,456.1,72.3,462z"/>
<path class="st0" d="M4,408c0,0.3,0,0.7,0,1c0,0.3,0,0.7,0,1c0,0.3,0,0.7,0,1c0,0.3,0,0.7,0,1c-0.1,0.5,0.1,1-0.1,1.5
	c0.1,0.5,0,1,0.1,1.5c-0.1,0.8,0.1,1.7-0.1,2.5c0.1,0.9,0,2.5,0.1,3.5c0,2.6-4,2.6-4,0c0-0.4,0-0.6,0-1c0-0.4,0-0.6,0-1
	c0-0.4,0-0.6,0-1c0-0.4,0-0.6,0-1c0-0.4,0-0.6,0-1c0-0.4,0-0.6,0-1c0-0.4,0-0.6,0-1c0-0.4,0-0.6,0-1c0.1-0.5-0.1-1,0.1-1.5
	c-0.2-0.5,0-1-0.1-1.5c0.1-0.5-0.1-1,0.1-1.5c-0.2-0.5,0-1-0.1-1.5c0-2.6,3.9-2.6,4,0C4,407.3,4,407.7,4,408z"/>
<path class="st0" d="M293,452.5c-0.1,3.2,0.1,6.3,0,9.5c0.1,1.2,0,2.3,0,3.5c0,1.4-1.1,2.5-2.5,2.5s-2.5-1.1-2.5-2.5
	c0-0.7,0-1.3,0-2c0-2,0-4,0-6c0-2,0-4,0-6c0-1.4,1.1-2.5,2.5-2.5s2.5,1.1,2.5,2.5C293,451.8,293,452.2,293,452.5z"/>
<path class="st0" d="M306,276.5c-0.1,0.5,0.1,1-0.1,1.5c0.1,0.3,0.1,0.7,0,1c0.1,0.3,0.1,0.7,0,1c0.1,0.3,0.1,0.7,0,1
	c0.1,0.3,0.1,0.7,0,1c0.1,0.3,0.1,0.7,0,1c0.1,0.3,0.1,0.7,0,1c0.1,0.3,0.1,0.7,0,1c0.2,0.5,0,1,0.1,1.5c-0.1,0.5,0.1,1-0.1,1.5
	c0.2,0.5,0,1,0.1,1.5c0,0.8-0.7,1.5-1.5,1.5c-1,0-1.8-1.1-1.4-2c-0.1-0.3-0.1-0.7,0-1c-0.1-0.3-0.1-0.7,0-1c-0.1-0.3-0.1-0.7,0-1
	c-0.2-0.5,0-1-0.1-1.5c0.1-0.5-0.1-1,0.1-1.5c-0.1-0.3-0.1-0.7,0-1c-0.2-0.5,0-1-0.1-1.5c0.1-0.5-0.1-1,0.1-1.5
	c-0.2-0.5,0-1-0.1-1.5c0.1-0.4,0.1-0.6,0-1c0.1-0.4,0.1-0.6,0-1c0-2,3-2,3,0C305.9,275.9,305.9,276.1,306,276.5z"/>
<path class="st0" d="M306,95c0,3,0,6,0,9c-0.1,0.8,0.1,1.7,0,2.5c0.1,0.5,0.1,1.5,0,2c0.6,4.3-5.8,4.8-6,0.5c0-0.7,0-1.3,0-2
	c0-4,0-8,0-12C300.1,91,305.9,91,306,95z"/>
<path class="st0" d="M12,3c0,3,0,6,0,9c-0.1,0.8,0.1,1.7,0,2.5c0.1,0.5,0.1,1.5,0,2c0.6,4.3-5.8,4.8-6,0.5c0-0.7,0-1.3,0-2
	c0-4,0-8,0-12C6.1-1,11.9-1,12,3z"/>
<path class="st0" d="M95,118.5c0,4.7,0,9.3,0,14c-0.1,3.3-4.9,3.3-5,0c0-4.7,0-9.3,0-14C90.1,115.2,94.9,115.2,95,118.5z"/>
<path class="st0" d="M208,54.5c0.1-0.5-0.1-1,0.1-1.5c-0.2-0.5,0-1-0.1-1.5c0.1-0.5-0.1-1,0.1-1.5c-0.2-0.5,0-1-0.1-1.5
	c0.1-0.5-0.1-1,0.1-1.5c-0.2-0.5,0-1-0.1-1.5c0.1-0.5-0.1-1,0.1-1.5c-0.1-0.3-0.1-0.7,0-1c-0.1-0.3-0.1-0.7,0-1
	c-0.2-0.5,0-1-0.1-1.5c0-2,3-2,3,0c-0.1,0.4-0.1,0.6,0,1c-0.1,0.4-0.1,0.6,0,1c-0.1,0.4-0.1,0.6,0,1c-0.1,0.5,0.1,1-0.1,1.5
	c0.2,0.5,0,1,0.1,1.5c-0.1,0.5,0.1,1-0.1,1.5c0.2,0.5,0,1,0.1,1.5c-0.1,0.5,0.1,1-0.1,1.5c0.2,0.5,0,1,0.1,1.5c-0.1,0.4-0.1,0.6,0,1
	c-0.1,0.4-0.1,0.6,0,1C211,56.5,208,56.5,208,54.5z"/>
<path class="st0" d="M212,170.5c0,4.7,0,9.3,0,14c-0.1,3.3-4.9,3.3-5,0c0-4.7,0-9.3,0-14C207.1,167.2,211.9,167.2,212,170.5z"/>
<path class="st0" d="M362,156c0,3.2,0,6.3,0,9.5c0.1,1.2,0,2.3,0,3.5c0,2.2-1.8,4-4,4s-4-1.8-4-4c0-1.2,0-2.3,0-3.5
	c-0.1-3.5,0-7,0-10.5C354.4,149.1,362.7,150.1,362,156z"/>
<path class="st0" d="M43,244.5c-0.1,3.2,0.1,6.3,0,9.5c0.1,1.2,0,2.3,0,3.5c0,1.4-1.1,2.5-2.5,2.5s-2.5-1.1-2.5-2.5c0-0.7,0-1.3,0-2
	c0-2,0-4,0-6c0-2,0-4,0-6c0-1.4,1.1-2.5,2.5-2.5s2.5,1.1,2.5,2.5C43,243.8,43,244.2,43,244.5z"/>
<path class="st0" d="M144,425.5c-0.1,3.2,0.1,6.3,0,9.5c0.1,1.2,0,2.3,0,3.5c0,1.4-1.1,2.5-2.5,2.5s-2.5-1.1-2.5-2.5
	c0-0.7,0-1.3,0-2c0-2,0-4,0-6c0-2,0-4,0-6c0-1.4,1.1-2.5,2.5-2.5s2.5,1.1,2.5,2.5C144,424.8,144,425.2,144,425.5z"/>
<path class="st0" d="M154,280.5c-0.1,3.2,0.1,6.3,0,9.5c0.1,1.2,0,2.3,0,3.5c0,1.4-1.1,2.5-2.5,2.5s-2.5-1.1-2.5-2.5
	c0-0.7,0-1.3,0-2c0-2,0-4,0-6c0-2,0-4,0-6c0-1.4,1.1-2.5,2.5-2.5s2.5,1.1,2.5,2.5C154,279.8,154,280.2,154,280.5z"/>
</svg>
